<svg width="24" height="28" viewBox="0 0 24 28" fill="none" xmlns="http://www.w3.org/2000/svg">
<path d="M12.0028 26L1.33149 20L1.33149 8L12.0028 2L22.6741 8L22.6741 20L12.0028 26Z" fill="black"/>
<path d="M0.8313 7.70703L1.08618 7.56445L11.7581 1.56445L12.0032 1.42676L12.2483 1.56445L22.9192 7.56445L23.1741 7.70703L23.1741 20.293L22.9192 20.4355L12.2483 26.4355L12.0032 26.5732L11.7581 26.4355L1.08618 20.4355L0.831299 20.293L0.8313 7.70703Z" stroke="white" stroke-opacity="0.15"/>
<path d="M6.69653 9.8894H17.3482V12.2162H6.69653V9.8894Z" fill="white"/>
<path d="M6.69653 12.8884H17.3482V15.2152H6.69653V12.8884Z" fill="white"/>
<path d="M6.69653 15.8874H11.4536V18.2142H6.69653V15.8874Z" fill="white"/>
<path d="M12.5911 15.8874H17.3482V18.2142H12.5911V15.8874Z" fill="white"/>
</svg>
