<svg width="137" height="52" viewBox="0 0 137 52" fill="none" xmlns="http://www.w3.org/2000/svg">
<g opacity="0.5" filter="url(#filter0_f_500_287)">
<path d="M11.9143 39.3316L12.657 37.6976C13.3997 37.8957 14.0682 38.0195 14.6623 38.0195C16.0735 38.0195 17.1132 37.3263 17.9055 35.2219C18.3758 33.9593 18.772 32.3006 19.1186 30.4439C17.1628 29.8992 15.5041 28.4138 15.5041 25.9876C15.5041 22.9178 18.1778 21.3581 20.7525 21.2591C21.1486 19.3528 21.5695 17.5703 22.1141 16.1592C23.2034 13.2874 25.085 12 27.2388 12C28.1548 12 29.1203 12.2476 30.0858 12.6684L29.3431 14.3024C28.6004 14.1043 27.932 13.9805 27.3378 13.9805C25.9267 13.9805 24.8869 14.6737 24.0947 16.8028C23.5995 18.0654 23.2034 19.6994 22.8568 21.5066C24.8126 22.076 26.4713 23.5615 26.4713 25.9876C26.4713 29.0822 23.8224 30.6419 21.1981 30.7162C20.8268 32.6225 20.4059 34.405 19.886 35.8161C18.7967 38.6879 16.9152 40 14.7613 40C13.8453 40 12.8798 39.7524 11.9143 39.3316ZM17.2618 25.9876C17.2618 27.473 18.2025 28.4138 19.4156 28.8347C19.5889 27.9187 19.7375 26.9531 19.9108 25.9876C20.0841 24.9478 20.2574 23.908 20.4554 22.893C18.772 23.0911 17.2618 24.1061 17.2618 25.9876ZM21.9903 26.2847C21.8418 27.2255 21.6685 28.1662 21.52 29.0822C23.1787 28.9089 24.7136 27.8691 24.7136 25.9876C24.7136 24.5022 23.7728 23.5367 22.535 23.1158C22.3617 24.1556 22.1636 25.2202 21.9903 26.2847Z" fill="url(#paint0_linear_500_287)"/>
</g>
<path d="M11.9143 39.3316L12.657 37.6976C13.3997 37.8957 14.0682 38.0195 14.6623 38.0195C16.0735 38.0195 17.1132 37.3263 17.9055 35.2219C18.3758 33.9593 18.772 32.3006 19.1186 30.4439C17.1628 29.8992 15.5041 28.4138 15.5041 25.9876C15.5041 22.9178 18.1778 21.3581 20.7525 21.2591C21.1486 19.3528 21.5695 17.5703 22.1141 16.1592C23.2034 13.2874 25.085 12 27.2388 12C28.1548 12 29.1203 12.2476 30.0858 12.6684L29.3431 14.3024C28.6004 14.1043 27.932 13.9805 27.3378 13.9805C25.9267 13.9805 24.8869 14.6737 24.0947 16.8028C23.5995 18.0654 23.2034 19.6994 22.8568 21.5066C24.8126 22.076 26.4713 23.5615 26.4713 25.9876C26.4713 29.0822 23.8224 30.6419 21.1981 30.7162C20.8268 32.6225 20.4059 34.405 19.886 35.8161C18.7967 38.6879 16.9152 40 14.7613 40C13.8453 40 12.8798 39.7524 11.9143 39.3316ZM17.2618 25.9876C17.2618 27.473 18.2025 28.4138 19.4156 28.8347C19.5889 27.9187 19.7375 26.9531 19.9108 25.9876C20.0841 24.9478 20.2574 23.908 20.4554 22.893C18.772 23.0911 17.2618 24.1061 17.2618 25.9876ZM21.9903 26.2847C21.8418 27.2255 21.6685 28.1662 21.52 29.0822C23.1787 28.9089 24.7136 27.8691 24.7136 25.9876C24.7136 24.5022 23.7728 23.5367 22.535 23.1158C22.3617 24.1556 22.1636 25.2202 21.9903 26.2847Z" fill="url(#paint1_linear_500_287)"/>
<g style="mix-blend-mode:overlay">
<path d="M11.9143 39.3316L12.657 37.6976C13.3997 37.8957 14.0682 38.0195 14.6623 38.0195C16.0735 38.0195 17.1132 37.3263 17.9055 35.2219C18.3758 33.9593 18.772 32.3006 19.1186 30.4439C17.1628 29.8992 15.5041 28.4138 15.5041 25.9876C15.5041 22.9178 18.1778 21.3581 20.7525 21.2591C21.1486 19.3528 21.5695 17.5703 22.1141 16.1592C23.2034 13.2874 25.085 12 27.2388 12C28.1548 12 29.1203 12.2476 30.0858 12.6684L29.3431 14.3024C28.6004 14.1043 27.932 13.9805 27.3378 13.9805C25.9267 13.9805 24.8869 14.6737 24.0947 16.8028C23.5995 18.0654 23.2034 19.6994 22.8568 21.5066C24.8126 22.076 26.4713 23.5615 26.4713 25.9876C26.4713 29.0822 23.8224 30.6419 21.1981 30.7162C20.8268 32.6225 20.4059 34.405 19.886 35.8161C18.7967 38.6879 16.9152 40 14.7613 40C13.8453 40 12.8798 39.7524 11.9143 39.3316ZM17.2618 25.9876C17.2618 27.473 18.2025 28.4138 19.4156 28.8347C19.5889 27.9187 19.7375 26.9531 19.9108 25.9876C20.0841 24.9478 20.2574 23.908 20.4554 22.893C18.772 23.0911 17.2618 24.1061 17.2618 25.9876ZM21.9903 26.2847C21.8418 27.2255 21.6685 28.1662 21.52 29.0822C23.1787 28.9089 24.7136 27.8691 24.7136 25.9876C24.7136 24.5022 23.7728 23.5367 22.535 23.1158C22.3617 24.1556 22.1636 25.2202 21.9903 26.2847Z" fill="url(#paint2_linear_500_287)"/>
</g>
<g style="mix-blend-mode:plus-lighter" opacity="0.8" filter="url(#filter1_f_500_287)">
<path d="M11.9143 39.3316L12.657 37.6976C13.3997 37.8957 14.0682 38.0195 14.6623 38.0195C16.0735 38.0195 17.1132 37.3263 17.9055 35.2219C18.3758 33.9593 18.772 32.3006 19.1186 30.4439C17.1628 29.8992 15.5041 28.4138 15.5041 25.9876C15.5041 22.9178 18.1778 21.3581 20.7525 21.2591C21.1486 19.3528 21.5695 17.5703 22.1141 16.1592C23.2034 13.2874 25.085 12 27.2388 12C28.1548 12 29.1203 12.2476 30.0858 12.6684L29.3431 14.3024C28.6004 14.1043 27.932 13.9805 27.3378 13.9805C25.9267 13.9805 24.8869 14.6737 24.0947 16.8028C23.5995 18.0654 23.2034 19.6994 22.8568 21.5066C24.8126 22.076 26.4713 23.5615 26.4713 25.9876C26.4713 29.0822 23.8224 30.6419 21.1981 30.7162C20.8268 32.6225 20.4059 34.405 19.886 35.8161C18.7967 38.6879 16.9152 40 14.7613 40C13.8453 40 12.8798 39.7524 11.9143 39.3316ZM17.2618 25.9876C17.2618 27.473 18.2025 28.4138 19.4156 28.8347C19.5889 27.9187 19.7375 26.9531 19.9108 25.9876C20.0841 24.9478 20.2574 23.908 20.4554 22.893C18.772 23.0911 17.2618 24.1061 17.2618 25.9876ZM21.9903 26.2847C21.8418 27.2255 21.6685 28.1662 21.52 29.0822C23.1787 28.9089 24.7136 27.8691 24.7136 25.9876C24.7136 24.5022 23.7728 23.5367 22.535 23.1158C22.3617 24.1556 22.1636 25.2202 21.9903 26.2847Z" fill="url(#paint3_linear_500_287)"/>
</g>
<path d="M76.1104 35.7304C70.6625 35.7304 66.353 31.3396 66.353 25.973C66.353 20.6335 70.6354 16.2427 76.1104 16.2427C81.5854 16.2427 85.8678 20.6335 85.8678 25.973C85.8678 31.3396 81.5854 35.7304 76.1104 35.7304ZM76.1104 32.1798C79.5526 32.1798 82.1817 29.4423 82.1817 25.973C82.1817 22.5579 79.5526 19.7933 76.1104 19.7933C72.6953 19.7933 70.0391 22.5579 70.0391 25.973C70.0391 29.4152 72.6953 32.1798 76.1104 32.1798Z" fill="url(#paint4_linear_500_287)"/>
<path d="M47.0474 35.7571C44.7121 35.7571 42.1735 34.8426 41.0302 32.7184C40.9654 32.5979 41.0086 32.4494 41.124 32.3759L43.133 31.0954C43.2692 31.0086 43.4501 31.06 43.5311 31.1998C44.3187 32.559 45.6742 33.1822 47.1016 33.1822C48.5381 33.1822 49.5139 32.6673 49.5139 31.7186C49.5139 30.77 48.8905 30.3905 46.0446 29.7129C42.6024 28.8998 41.3827 27.4904 41.3827 25.4305C41.3827 22.9098 43.6594 21.2294 47.0203 21.2294C49.4042 21.2294 51.3174 22.2203 52.381 23.8705C52.4622 23.9965 52.4168 24.1629 52.2868 24.2374L50.352 25.3461C50.2195 25.422 50.0514 25.3729 49.9685 25.2447C49.34 24.273 48.2441 23.6687 46.939 23.6687C45.638 23.6687 44.852 24.1837 44.852 25.051C44.852 25.9184 45.5025 26.3249 47.9147 26.9483C51.5738 27.8428 52.9019 29.3335 52.9019 31.4747C52.9019 34.1038 50.5709 35.7571 47.0474 35.7571Z" fill="url(#paint5_linear_500_287)"/>
<path d="M129.709 35.7304C126.332 35.7304 123.34 34.1636 122.033 31.4802C121.972 31.3552 122.022 31.2059 122.143 31.1369L124.51 29.7842C124.651 29.7034 124.831 29.7652 124.904 29.911C125.726 31.5612 127.47 32.5593 129.628 32.5593C132.067 32.5593 133.26 31.5022 133.26 30.147C133.26 29.0899 132.474 28.5208 130.576 27.8974L127.839 27.03C125.02 26.1085 122.852 24.7262 122.852 21.7177C122.852 18.3297 125.86 16.2427 129.411 16.2427C132.447 16.2427 134.826 17.6077 136.133 19.8251C136.21 19.9552 136.159 20.1216 136.025 20.1916L133.55 21.486C133.419 21.5544 133.258 21.505 133.181 21.3788C132.387 20.0749 131.156 19.2512 129.465 19.2512C127.73 19.2512 126.511 20.1456 126.511 21.4466C126.511 22.8289 127.676 23.371 129.031 23.8047L131.877 24.7533C135.509 25.9188 137 27.4095 137 30.0115C137 33.5892 133.802 35.7304 129.709 35.7304Z" fill="url(#paint6_linear_500_287)"/>
<path d="M120.938 34.8957C121.026 35.0758 120.895 35.2858 120.694 35.2858H117.307L112.136 23.9888C111.959 23.6004 111.407 23.6004 111.229 23.9888L106.059 35.2858H102.671C102.471 35.2858 102.34 35.0756 102.428 34.8955L111.247 16.8935C111.43 16.5207 111.962 16.521 112.144 16.894L120.938 34.8957ZM112.149 23.9892C111.972 23.6006 111.42 23.6001 111.242 23.9884L106.059 35.2858L111.229 23.9888C111.407 23.6004 111.959 23.6004 112.136 23.9888L117.307 35.2858L112.149 23.9892Z" fill="url(#paint7_linear_500_287)"/>
<path d="M100.263 35.0148C100.263 35.1645 100.142 35.2858 99.9921 35.2858H88.4187C88.2691 35.2858 88.1477 35.1645 88.1477 35.0148V16.8822C88.1477 16.7325 88.2691 16.6112 88.4187 16.6112H91.5628C91.7125 16.6112 91.8338 16.7325 91.8338 16.8822V31.8978C91.8338 31.9727 91.8945 32.0333 91.9694 32.0333H99.9921C100.142 32.0333 100.263 32.1547 100.263 32.3044V35.0148Z" fill="url(#paint8_linear_500_287)"/>
<path d="M56.912 30.2775V20.6038C56.912 20.4988 56.9726 20.4032 57.0677 20.3585L60.022 18.9693C60.2017 18.8847 60.4084 19.0159 60.4084 19.2145V29.8439C60.4084 31.7141 61.4383 32.4188 62.929 32.4188C63.4426 32.4188 63.9561 32.3253 64.4106 32.1503C64.603 32.0763 64.8263 32.2102 64.8263 32.4164V34.8737C64.8263 34.9798 64.7646 35.0766 64.6671 35.1184C63.7715 35.5021 62.8759 35.6712 61.9804 35.6712C58.9176 35.6712 56.912 33.6655 56.912 30.2775Z" fill="url(#paint9_linear_500_287)"/>
<path d="M54.4292 23.3194C54.4292 23.1697 54.5505 23.0483 54.7002 23.0483H63.6935C63.8432 23.0483 63.9645 23.1697 63.9645 23.3194V25.6774C63.9645 25.8271 63.8432 25.9485 63.6935 25.9485H54.7002C54.5505 25.9485 54.4292 25.8271 54.4292 25.6774V23.3194Z" fill="url(#paint10_linear_500_287)"/>
<defs>
<filter id="filter0_f_500_287" x="0.24764" y="0.333333" width="41.505" height="51.3333" filterUnits="userSpaceOnUse" color-interpolation-filters="sRGB">
<feFlood flood-opacity="0" result="BackgroundImageFix"/>
<feBlend mode="normal" in="SourceGraphic" in2="BackgroundImageFix" result="shape"/>
<feGaussianBlur stdDeviation="5.83333" result="effect1_foregroundBlur_500_287"/>
</filter>
<filter id="filter1_f_500_287" x="8.02542" y="8.11111" width="25.9494" height="35.7778" filterUnits="userSpaceOnUse" color-interpolation-filters="sRGB">
<feFlood flood-opacity="0" result="BackgroundImageFix"/>
<feBlend mode="normal" in="SourceGraphic" in2="BackgroundImageFix" result="shape"/>
<feGaussianBlur stdDeviation="1.94444" result="effect1_foregroundBlur_500_287"/>
</filter>
<linearGradient id="paint0_linear_500_287" x1="21.0001" y1="12" x2="21.0001" y2="40" gradientUnits="userSpaceOnUse">
<stop stop-color="#49CBF9"/>
<stop offset="1" stop-color="#293FF8"/>
</linearGradient>
<linearGradient id="paint1_linear_500_287" x1="21.0001" y1="12" x2="21.0001" y2="40" gradientUnits="userSpaceOnUse">
<stop stop-color="#49CBF9"/>
<stop offset="1" stop-color="#293FF8"/>
</linearGradient>
<linearGradient id="paint2_linear_500_287" x1="21.0001" y1="12" x2="21.0001" y2="40" gradientUnits="userSpaceOnUse">
<stop stop-color="#49CBF9"/>
<stop offset="1" stop-color="#293FF8"/>
</linearGradient>
<linearGradient id="paint3_linear_500_287" x1="21.0001" y1="12" x2="21.0001" y2="40" gradientUnits="userSpaceOnUse">
<stop stop-color="#49CBF9"/>
<stop offset="1" stop-color="#293FF8"/>
</linearGradient>
<linearGradient id="paint4_linear_500_287" x1="89" y1="16.2427" x2="89" y2="35.7571" gradientUnits="userSpaceOnUse">
<stop stop-color="white"/>
<stop offset="1" stop-color="#AFD2E4"/>
</linearGradient>
<linearGradient id="paint5_linear_500_287" x1="89" y1="16.2427" x2="89" y2="35.7571" gradientUnits="userSpaceOnUse">
<stop stop-color="white"/>
<stop offset="1" stop-color="#AFD2E4"/>
</linearGradient>
<linearGradient id="paint6_linear_500_287" x1="89" y1="16.2427" x2="89" y2="35.7571" gradientUnits="userSpaceOnUse">
<stop stop-color="white"/>
<stop offset="1" stop-color="#AFD2E4"/>
</linearGradient>
<linearGradient id="paint7_linear_500_287" x1="89" y1="16.2427" x2="89" y2="35.7571" gradientUnits="userSpaceOnUse">
<stop stop-color="white"/>
<stop offset="1" stop-color="#AFD2E4"/>
</linearGradient>
<linearGradient id="paint8_linear_500_287" x1="89" y1="16.2427" x2="89" y2="35.7571" gradientUnits="userSpaceOnUse">
<stop stop-color="white"/>
<stop offset="1" stop-color="#AFD2E4"/>
</linearGradient>
<linearGradient id="paint9_linear_500_287" x1="89" y1="16.2427" x2="89" y2="35.7571" gradientUnits="userSpaceOnUse">
<stop stop-color="white"/>
<stop offset="1" stop-color="#AFD2E4"/>
</linearGradient>
<linearGradient id="paint10_linear_500_287" x1="89" y1="16.2427" x2="89" y2="35.7571" gradientUnits="userSpaceOnUse">
<stop stop-color="white"/>
<stop offset="1" stop-color="#AFD2E4"/>
</linearGradient>
</defs>
</svg>
